<svg width="95" height="123" viewBox="0 0 95 123" fill="none" xmlns="http://www.w3.org/2000/svg">
<path d="M0.296261 3.15467C-0.0545792 2.1073 0.510068 0.973824 1.55744 0.622985C2.60481 0.272145 3.73828 0.836791 4.08912 1.88416L0.296261 3.15467ZM23.2159 42.6166L24.7595 41.3449L23.2159 42.6166ZM50.6184 54.3296L50.8718 52.3457L50.6184 54.3296ZM90.8246 32.8124L92.729 33.4233L90.8246 32.8124ZM91.0027 21.9661L92.4613 20.5977L91.0027 21.9661ZM83.9925 21.6663L84.2672 23.6473L83.9925 21.6663ZM69.2735 25.3871L70.0456 27.232L69.2735 25.3871ZM47.3123 40.3676L48.6484 41.8559L47.3123 40.3676ZM22.8712 73.5916L24.7369 74.3123L22.8712 73.5916ZM20.9841 121.699C20.4924 122.688 19.2919 123.092 18.3029 122.6L2.18535 114.586C1.1963 114.094 0.793191 112.893 1.28498 111.904C1.77676 110.915 2.97722 110.512 3.96627 111.004L18.2929 118.128L25.4166 103.801C25.9084 102.812 27.1088 102.409 28.0979 102.901C29.0869 103.392 29.4901 104.593 28.9983 105.582L20.9841 121.699ZM4.08912 1.88416C8.69777 15.6424 15.6022 30.2303 24.7595 41.3449L21.6723 43.8884C12.0962 32.2655 4.9955 17.1834 0.296261 3.15467L4.08912 1.88416ZM24.7595 41.3449C27.6129 44.8081 31.7658 47.2731 36.4667 49.0235C41.1578 50.7702 46.2638 51.757 50.8718 52.3457L50.3649 56.3135C45.5968 55.7043 40.1586 54.6664 35.0709 52.772C29.9932 50.8813 25.133 48.0887 21.6723 43.8884L24.7595 41.3449ZM50.8718 52.3457C67.2609 54.4395 83.7824 48.2181 88.9202 32.2015L92.729 33.4233C86.7706 51.998 67.7988 58.5407 50.3649 56.3135L50.8718 52.3457ZM88.9202 32.2015C89.3376 30.9004 89.9203 28.9873 90.1329 27.1327C90.361 25.1439 90.0806 23.9063 89.5442 23.3346L92.4613 20.5977C94.3037 22.5613 94.3531 25.4409 94.1069 27.5884C93.8452 29.8702 93.1495 32.1126 92.729 33.4233L88.9202 32.2015ZM89.5442 23.3346C89.6208 23.4163 89.5837 23.318 89.1582 23.2411C88.7627 23.1696 88.233 23.1535 87.6039 23.1916C86.2845 23.2715 85.1382 23.5265 84.2672 23.6473L83.7177 19.6853C84.1872 19.6201 85.8563 19.2901 87.3621 19.1989C88.1457 19.1514 89.031 19.1532 89.8697 19.3048C90.6785 19.451 91.695 19.781 92.4613 20.5977L89.5442 23.3346ZM84.2672 23.6473C79.404 24.3219 74.4486 25.3894 70.0456 27.232L68.5014 23.5421C73.3509 21.5126 78.6847 20.3834 83.7177 19.6853L84.2672 23.6473ZM70.0456 27.232C62.1385 30.5411 55.1767 35.9953 48.6484 41.8559L45.9763 38.8793C52.5962 32.9365 59.9613 27.1161 68.5014 23.5421L70.0456 27.232ZM48.6484 41.8559C38.2587 51.1828 29.7459 61.345 24.7369 74.3123L21.0056 72.871C26.3247 59.1011 35.3253 48.4408 45.9763 38.8793L48.6484 41.8559ZM24.7369 74.3123C19.2502 88.516 16.2765 105.84 21.0893 120.172L17.2974 121.446C12.0565 105.838 15.3695 87.4616 21.0056 72.871L24.7369 74.3123Z" fill="#251657"/>
</svg>
