<?xml version="1.0" standalone="no"?>
<!DOCTYPE svg PUBLIC "-//W3C//DTD SVG 20010904//EN"
 "http://www.w3.org/TR/2001/REC-SVG-20010904/DTD/svg10.dtd">
<svg version="1.0" xmlns="http://www.w3.org/2000/svg"
 width="454.000000pt" height="454.000000pt" viewBox="0 0 454.000000 454.000000"
 preserveAspectRatio="xMidYMid meet">
<metadata>
Created by potrace 1.14, written by Peter Selinger 2001-2017
</metadata>
<g transform="translate(0.000000,454.000000) scale(0.100000,-0.100000)"
fill="#000000" stroke="none">
<path d="M1991 3827 c-17 -17 -14 -36 23 -122 147 -352 64 -723 -239 -1070
-90 -104 -193 -248 -257 -362 -35 -62 -66 -112 -69 -113 -9 0 -75 136 -99 204
-26 74 -48 169 -56 238 -8 74 -12 120 -13 139 -1 22 -27 32 -50 20 -23 -13
-111 -156 -161 -263 -116 -248 -136 -525 -60 -829 97 -384 351 -707 688 -874
93 -46 202 -85 237 -85 31 0 38 34 15 73 -53 89 -80 220 -75 357 6 154 48 293
158 520 69 141 220 390 237 390 18 0 145 -210 233 -385 63 -125 98 -209 122
-292 18 -61 19 -67 35 -153 22 -120 -7 -313 -63 -428 -26 -53 -28 -69 -8 -81
16 -10 58 0 166 42 317 121 587 393 729 734 79 189 101 351 84 610 -7 107 -31
139 -71 93 -9 -11 -17 -23 -17 -26 0 -14 -113 -164 -162 -215 -53 -56 -126
-115 -132 -108 -2 2 -6 50 -10 106 -21 340 -92 605 -241 903 -169 337 -488
697 -815 919 -98 67 -113 74 -129 58z"/>
</g>
</svg>
