<?xml version="1.0" standalone="no"?>
<!DOCTYPE svg PUBLIC "-//W3C//DTD SVG 20010904//EN"
 "http://www.w3.org/TR/2001/REC-SVG-20010904/DTD/svg10.dtd">
<svg version="1.0" xmlns="http://www.w3.org/2000/svg"
 width="324.000000pt" height="324.000000pt" viewBox="0 0 324.000000 324.000000"
 preserveAspectRatio="xMidYMid meet">
<metadata>
Created by potrace 1.14, written by Peter Selinger 2001-2017
</metadata>
<g transform="translate(0.000000,324.000000) scale(0.100000,-0.100000)"
fill="#000000" stroke="none">
<path d="M1346 3169 c-12 -18 -11 -25 6 -60 28 -58 75 -206 83 -264 11 -72 12
-201 3 -265 -32 -210 -154 -438 -353 -654 -49 -52 -215 -298 -205 -302 3 -1
-2 -10 -11 -20 -9 -11 -24 -36 -34 -57 -22 -47 -31 -41 -78 56 -39 80 -71 173
-88 257 -11 55 -13 76 -24 185 -3 32 -7 60 -8 61 -1 1 -12 5 -24 8 -20 6 -29
-3 -77 -76 -87 -134 -163 -306 -190 -429 -19 -85 -27 -290 -15 -369 4 -25 10
-65 13 -90 3 -25 9 -56 12 -70 3 -14 7 -35 10 -47 25 -123 118 -331 205 -461
160 -237 400 -418 669 -501 53 -17 62 -17 75 -4 19 18 19 16 -6 65 -79 155
-97 368 -46 548 57 200 165 424 317 657 l49 73 24 -32 c21 -28 72 -110 128
-206 148 -253 238 -502 244 -679 5 -115 -24 -266 -66 -342 -34 -64 -36 -77
-11 -90 39 -21 278 79 415 173 292 200 502 534 564 894 7 45 7 287 -1 357 -5
45 -24 75 -47 75 -4 0 -32 -38 -62 -84 -62 -94 -83 -121 -147 -187 -48 -49
-118 -104 -124 -98 -2 2 -7 56 -10 119 -4 63 -10 140 -16 170 -5 30 -11 71
-14 90 -24 164 -105 415 -189 590 -173 358 -481 712 -832 955 -110 76 -120 80
-139 54z"/>
</g>
</svg>
